<svg width="64" height="64" viewBox="0 0 64 64" fill="none" xmlns="http://www.w3.org/2000/svg">
  <rect width="64" height="64" rx="12" fill="#F7DF1E"/>
  <path d="M37.6 48.1c1.1 1.8 2.5 3.2 5.1 3.2 2.1 0 3.4-1 3.4-2.4 0-1.7-1.4-2.3-3.7-3.3l-1.3-.6c-3.7-1.6-6.2-3.6-6.2-7.8 0-3.9 3-6.8 7.7-6.8 3.3 0 5.7 1.1 7.4 4.1l-4.1 2.6c-.9-1.6-1.9-2.2-3.3-2.2-1.5 0-2.5.9-2.5 2.2 0 1.6.9 2.2 3 3.2l1.3.6c4.4 1.9 6.9 3.8 6.9 8.1 0 4.6-3.6 7.1-8.4 7.1-4.7 0-7.7-2.2-9.2-5.1l4.2-2.4zm-17.2.4c.8 1.4 1.5 2.6 3.2 2.6 1.6 0 2.6-.6 2.6-3.1V32.2h5.1v15.8c0 5.3-3.1 7.7-7.6 7.7-4.1 0-6.5-2.1-7.7-4.7l4.4-2.5z" fill="#222"/>
</svg>
