<?xml version="1.0" encoding="UTF-8"?>
<svg version="1.1" xmlns="http://www.w3.org/2000/svg" width="512" height="512">
<path d="M0 0 C1.45108658 0.00273422 1.45108658 0.00273422 2.93148804 0.00552368 C17.26440977 0.05095174 31.21023917 0.55983928 45.3125 3.3125 C46.65803955 3.55395752 46.65803955 3.55395752 48.03076172 3.80029297 C107.84088904 14.62287989 165.35495829 48.68064457 202.3125 97.3125 C202.72918945 97.85277832 203.14587891 98.39305664 203.57519531 98.94970703 C211.2584873 108.9447116 218.00092968 119.40459036 224.3125 130.3125 C224.70679199 130.98974121 225.10108398 131.66698242 225.50732422 132.36474609 C238.68961173 155.2833756 247.29510918 180.85822563 252.625 206.6875 C252.77243652 207.39817627 252.91987305 208.10885254 253.07177734 208.84106445 C256.05713763 224.48358239 256.68731582 240.11919645 256.625 256 C256.62226578 257.45058807 256.62226578 257.45058807 256.61947632 258.93048096 C256.57409619 273.24251557 256.15615418 287.24145569 253.3125 301.3125 C253.03913818 302.69719482 253.03913818 302.69719482 252.76025391 304.10986328 C250.34519553 316.06813481 247.30317768 327.78448845 243.3125 339.3125 C243.05742676 340.05564453 242.80235352 340.79878906 242.53955078 341.56445312 C226.24944717 388.57498524 195.64868031 431.8194947 155.3125 461.3125 C154.67795898 461.78606934 154.04341797 462.25963867 153.38964844 462.74755859 C113.44553626 492.49504969 62.72604149 512.25221394 12.51953125 512.515625 C11.61894485 512.52263931 10.71835846 512.52965363 9.79048157 512.53688049 C6.90193619 512.55427809 4.01359584 512.56073227 1.125 512.5625 C0.13796082 512.56317474 -0.84907837 512.56384949 -1.86602783 512.56454468 C-16.33718559 512.54881228 -30.45744611 512.18350014 -44.6875 509.3125 C-45.58936035 509.13557617 -46.4912207 508.95865234 -47.42041016 508.77636719 C-53.89332573 507.47752189 -60.29770862 505.97073805 -66.6875 504.3125 C-67.51813965 504.09754883 -68.3487793 503.88259766 -69.20458984 503.66113281 C-110.25786097 492.77326824 -147.24915796 470.71464317 -177.6875 441.3125 C-178.61876709 440.414104 -178.61876709 440.414104 -179.56884766 439.49755859 C-187.47000259 431.83373497 -195.01516955 424.09251606 -201.6875 415.3125 C-202.10418945 414.77222168 -202.52087891 414.23194336 -202.95019531 413.67529297 C-210.6334873 403.6802884 -217.37592968 393.22040964 -223.6875 382.3125 C-224.08179199 381.63525879 -224.47608398 380.95801758 -224.88232422 380.26025391 C-239.79035371 354.34126191 -249.34901819 324.84898362 -253.6875 295.3125 C-253.86482666 294.10787109 -254.04215332 292.90324219 -254.22485352 291.66210938 C-255.823825 280.00482646 -256.0459053 268.44063902 -256 256.6875 C-255.99817719 255.71761139 -255.99635437 254.74772278 -255.99447632 253.7484436 C-255.94908309 239.39693945 -255.4437347 225.43307082 -252.6875 211.3125 C-252.44604248 209.96696045 -252.44604248 209.96696045 -252.19970703 208.59423828 C-241.37712011 148.78411096 -207.31935543 91.27004171 -158.6875 54.3125 C-158.14722168 53.89581055 -157.60694336 53.47912109 -157.05029297 53.04980469 C-147.0552884 45.3665127 -136.59540964 38.62407032 -125.6875 32.3125 C-125.01025879 31.91820801 -124.33301758 31.52391602 -123.63525391 31.11767578 C-100.7166244 17.93538827 -75.14177437 9.32989082 -49.3125 4 C-48.60182373 3.85256348 -47.89114746 3.70512695 -47.15893555 3.55322266 C-31.51641634 0.56786213 -15.88080394 -0.0623098 0 0 Z " fill="#3775AB" transform="translate(255.6875,-0.3125)"/>
<path d="M0 0 C6.98832327 -0.12811897 13.97633731 -0.2148966 20.96557617 -0.2746582 C23.33678504 -0.29960474 25.7079186 -0.33357449 28.07885742 -0.37719727 C48.40179691 -0.74140765 65.5426023 0.98989317 81.2890625 15.2578125 C107.81409203 42.26731745 112.23543919 82.00664195 112.3125 118 C112.31617584 118.82376129 112.31985168 119.64752258 112.32363892 120.49624634 C112.35622445 134.47613921 112.32924478 148.98979783 107 162.125 C106.69803711 162.90230469 106.39607422 163.67960938 106.08496094 164.48046875 C105.08738767 167.00086407 104.05178812 169.50176547 103 172 C102.4421582 173.32789551 102.4421582 173.32789551 101.87304688 174.68261719 C84.38623093 215.7430623 56.20195877 253.52985449 20 280 C19.36545898 280.47356934 18.73091797 280.94713867 18.07714844 281.43505859 C-21.86696374 311.18254969 -72.58645851 330.93971394 -122.79296875 331.203125 C-123.69355515 331.21013931 -124.59414154 331.21715363 -125.52201843 331.22438049 C-128.41056381 331.24177809 -131.29890416 331.24823227 -134.1875 331.25 C-135.17453918 331.25067474 -136.16157837 331.25134949 -137.17852783 331.25204468 C-151.64968559 331.23631228 -165.76994611 330.87100014 -180 328 C-180.90186035 327.82307617 -181.8037207 327.64615234 -182.73291016 327.46386719 C-189.20582573 326.16502189 -195.61020862 324.65823805 -202 323 C-203.24595947 322.67757324 -203.24595947 322.67757324 -204.51708984 322.34863281 C-220.19092551 318.19172654 -235.51585779 312.30072873 -250 305 C-250.11713959 287.883534 -250.20513728 270.76719425 -250.25906086 253.65041828 C-250.2847713 245.70162313 -250.31978346 237.75307798 -250.37719727 229.80444336 C-250.42725309 222.87113824 -250.45934297 215.93801429 -250.47044247 209.00453347 C-250.47692408 205.33797676 -250.49200469 201.67193807 -250.52865028 198.00554848 C-250.56936284 193.8984099 -250.56993536 189.79215453 -250.56762695 185.68481445 C-250.58560333 184.48790482 -250.60357971 183.29099518 -250.62210083 182.05781555 C-250.53006547 166.83375158 -243.81579935 155.05932785 -233.5625 144.1875 C-223.98581781 135.15126263 -212.19402498 129.90377949 -198.96798706 129.85523987 C-197.15144371 129.84489212 -197.15144371 129.84489212 -195.29820251 129.83433533 C-193.96426407 129.83162099 -192.63032546 129.8289838 -191.29638672 129.82641602 C-189.88494159 129.8201062 -188.47349843 129.81333993 -187.0620575 129.80615234 C-184.02609547 129.7915081 -180.99014099 129.7797727 -177.95415878 129.77020454 C-173.14519439 129.75470886 -168.33629494 129.7307576 -163.52737427 129.70530701 C-149.85357784 129.63422613 -136.17974402 129.57444406 -122.50585938 129.52319336 C-114.95099558 129.4948024 -107.39619628 129.4593725 -99.84140027 129.41653961 C-95.07007818 129.38990724 -90.29882898 129.37191613 -85.52744746 129.36050236 C-82.54522737 129.3513123 -79.56309503 129.33392064 -76.5809269 129.31432343 C-74.55896563 129.30340503 -72.53695941 129.30210365 -70.51496887 129.30119324 C-60.12408586 129.21895688 -50.51707333 128.21393524 -41 123.875 C-40.32138916 123.57078125 -39.64277832 123.2665625 -38.94360352 122.953125 C-32.71029858 120.05206218 -27.26796932 116.42544898 -22 112 C-21.35804688 111.47019531 -20.71609375 110.94039063 -20.0546875 110.39453125 C-10.37065968 101.60073917 -3.54465265 87.75315425 -1 75 C-0.8833138 72.54536978 -0.81525028 70.11650089 -0.79467773 67.66113281 C-0.78477814 66.92903091 -0.77487854 66.19692902 -0.76467896 65.44264221 C-0.7331618 63.02950239 -0.70834536 60.61634291 -0.68359375 58.203125 C-0.66301577 56.52731828 -0.64201907 54.85151666 -0.62062073 53.17572021 C-0.56548726 48.76991913 -0.51603958 44.36407188 -0.46777344 39.95819092 C-0.41749464 35.46036685 -0.36184189 30.96260963 -0.30664062 26.46484375 C-0.1991658 17.64328631 -0.0976972 8.82167076 0 0 Z " fill="#F6CC00" transform="translate(391,181)"/>
<path d="M0 0 C1.45108658 0.00273422 1.45108658 0.00273422 2.93148804 0.00552368 C17.26440977 0.05095174 31.21023917 0.55983928 45.3125 3.3125 C46.65803955 3.55395752 46.65803955 3.55395752 48.03076172 3.80029297 C107.84088904 14.62287989 165.35495829 48.68064457 202.3125 97.3125 C202.72918945 97.85277832 203.14587891 98.39305664 203.57519531 98.94970703 C211.2584873 108.9447116 218.00092968 119.40459036 224.3125 130.3125 C224.70679199 130.98974121 225.10108398 131.66698242 225.50732422 132.36474609 C238.68961173 155.2833756 247.29510918 180.85822563 252.625 206.6875 C252.77243652 207.39817627 252.91987305 208.10885254 253.07177734 208.84106445 C256.05713763 224.48358239 256.68731582 240.11919645 256.625 256 C256.62226578 257.45058807 256.62226578 257.45058807 256.61947632 258.93048096 C256.54893661 281.17737077 253.68335518 301.73501091 248.3125 323.3125 C248.11543457 324.10543457 247.91836914 324.89836914 247.71533203 325.71533203 C247.24989146 327.58159725 246.78154265 329.44713683 246.3125 331.3125 C245.9825 331.3125 245.6525 331.3125 245.3125 331.3125 C245.41643066 330.23222534 245.41643066 330.23222534 245.52246094 329.13012695 C249.17085701 287.35858865 248.30869164 239.27845198 222.3125 204.3125 C221.83296875 203.64863281 221.3534375 202.98476562 220.859375 202.30078125 C213.86795077 193.36059797 203.86856717 187.95349643 193.3125 184.3125 C192.34143311 183.97025391 191.37036621 183.62800781 190.36987305 183.27539062 C185.15929031 181.80906138 179.84875244 181.95596804 174.47265625 181.8984375 C173.35056259 181.87907135 172.22846893 181.8597052 171.07237244 181.8397522 C167.5066577 181.78021984 163.94091022 181.73367622 160.375 181.6875 C157.94985612 181.64929601 155.52472545 181.61024288 153.09960938 181.5703125 C147.1706907 181.47453999 141.24169168 181.38941603 135.3125 181.3125 C135.32360306 182.21879654 135.33470612 183.12509308 135.34614563 184.05885315 C135.44695953 192.66304173 135.52277261 201.26702767 135.57156086 209.87167454 C135.59748806 214.29385954 135.63257075 218.71555043 135.68969727 223.13745117 C135.74462809 227.4169127 135.77404687 231.69590356 135.78688622 235.97569084 C135.796018 237.5961541 135.81384505 239.21659601 135.84115028 240.83685493 C136.15464801 260.23775673 130.299095 276.67272719 116.68359375 291 C100.77053576 306.51981933 82.97535544 311.45307812 61.38183594 311.47021484 C59.97009627 311.47488947 58.55835809 311.4800341 57.1466217 311.48561096 C54.11614882 311.49684826 51.08568551 311.50530339 48.05519867 311.51173019 C43.2544749 311.52246255 38.45382029 311.54272133 33.65313721 311.56484985 C20.0049558 311.62659804 6.35677927 311.68073642 -7.29150391 311.71386719 C-14.83688371 311.73226306 -22.38214662 311.76125868 -29.9274404 311.8018719 C-33.91332893 311.82285425 -37.89907075 311.83838669 -41.8850174 311.84067917 C-45.63786455 311.84284034 -49.39040605 311.85885774 -53.14315987 311.88506889 C-55.16032857 311.89558463 -57.17755716 311.89153219 -59.19474792 311.8868866 C-75.4887063 312.0344296 -88.26232464 316.91053266 -99.91796875 328.3515625 C-110.45061784 339.25233608 -114.29596697 351.81796966 -114.23339844 366.6784668 C-114.24373611 367.9675444 -114.25407379 369.25662201 -114.26472473 370.58476257 C-114.29234838 374.08408691 -114.29599473 377.58305606 -114.29500484 381.08247352 C-114.29815453 384.75271856 -114.32381502 388.42280838 -114.34698486 392.0929718 C-114.38739222 399.02704992 -114.40784943 405.96103437 -114.42095876 412.89521199 C-114.43688084 420.79624674 -114.47531808 428.69712323 -114.51555204 436.59806573 C-114.5977418 452.83616485 -114.65196423 469.07423029 -114.6875 485.3125 C-118.4349702 484.09654593 -121.771064 482.86634541 -125.15625 480.84375 C-125.96779541 480.36010986 -126.77934082 479.87646973 -127.61547852 479.37817383 C-128.88862915 478.60316528 -128.88862915 478.60316528 -130.1875 477.8125 C-131.07171631 477.27713623 -131.95593262 476.74177246 -132.86694336 476.19018555 C-152.35777699 464.26232573 -169.39437973 449.64703323 -185.5625 433.5625 C-186.18092773 432.94874512 -186.79935547 432.33499023 -187.43652344 431.70263672 C-198.6875 420.41210832 -198.6875 420.41210832 -198.6875 417.3125 C-197.82724716 417.62843864 -197.82724716 417.62843864 -196.94961548 417.95075989 C-189.85634899 420.34059854 -183.34563336 420.78209037 -175.8984375 420.82421875 C-174.71400055 420.84216995 -173.5295636 420.86012115 -172.30923462 420.87861633 C-168.5603583 420.93239989 -164.81160696 420.96651292 -161.0625 421 C-158.50649315 421.0332012 -155.95050271 421.06769342 -153.39453125 421.10351562 C-147.15896633 421.18810792 -140.92338458 421.25659194 -134.6875 421.3125 C-134.69749275 420.04035393 -134.69749275 420.04035393 -134.70768738 418.74250793 C-134.76813749 410.69685748 -134.81364513 402.6512848 -134.84293652 394.60545826 C-134.85850243 390.47035234 -134.87957174 386.3354362 -134.91381836 382.20043945 C-134.94673955 378.19982258 -134.96442098 374.19938666 -134.97213173 370.19864464 C-134.97761713 368.68263595 -134.98832616 367.16663563 -135.00469017 365.65070534 C-135.13312301 353.24417547 -133.97445545 341.41700753 -128.125 330.25 C-127.77985352 329.58154053 -127.43470703 328.91308105 -127.07910156 328.22436523 C-118.73500752 312.69507911 -105.38764541 301.14429681 -88.6875 295.3125 C-79.40068284 292.66008184 -70.71905257 291.88185854 -61.09155273 291.92773438 C-59.68054774 291.92361699 -58.26954614 291.91814929 -56.85855103 291.91145325 C-53.84777376 291.89983022 -50.83717928 291.89720686 -47.82638359 291.90180969 C-43.05425238 291.9086862 -38.28235673 291.89263896 -33.51026917 291.87341309 C-22.52248442 291.83255186 -11.53470759 291.82103608 -0.54685974 291.80988312 C9.53628006 291.79934396 19.61930471 291.78242621 29.70237392 291.74178743 C34.43503175 291.72355622 39.16741456 291.71949316 43.90009892 291.72672272 C46.8550607 291.72825619 49.80988762 291.71738886 52.76481247 291.70334435 C54.76386355 291.69750538 56.76294117 291.70638595 58.76197815 291.71589661 C74.38662031 291.61065123 88.76027238 287.48613537 100.28125 276.5078125 C112.3369624 263.47836949 115.60376091 249.03610129 115.63476562 231.72143555 C115.64404188 230.37013215 115.65409382 229.01883389 115.66485596 227.6675415 C115.69091057 224.02069253 115.70395475 220.37391685 115.71287727 216.72698951 C115.71876817 214.44217262 115.72698292 212.15737514 115.73588562 209.87256813 C115.76318008 202.7050187 115.78254229 195.53751437 115.7902894 188.36991662 C115.79924778 180.13021443 115.83435221 171.89117628 115.89229059 163.65167588 C115.93567012 157.25814033 115.95570554 150.86479068 115.95837164 144.47110969 C115.96045672 140.66328098 115.97203306 136.85607878 116.00801086 133.0484066 C116.04123002 129.46359222 116.04516272 125.87986687 116.02773285 122.29495239 C116.02548459 120.37211607 116.05271947 118.44931377 116.08123779 116.52668762 C115.98252161 106.1301597 112.78829432 97.90197788 105.8125 90.125 C88.58553144 74.51104348 65.77482039 67.2996816 43.3125 63.3125 C42.45720703 63.15023926 41.60191406 62.98797852 40.72070312 62.82080078 C26.27524684 60.17173811 11.76467248 60.00352489 -2.875 59.9375 C-4.25827484 59.92558121 -4.25827484 59.92558121 -5.66949463 59.91342163 C-23.26027819 59.79706236 -40.55415666 61.43189237 -57.5625 66.125 C-58.51882324 66.38289307 -59.47514648 66.64078613 -60.46044922 66.90649414 C-81.50763403 72.74702589 -103.26970481 81.75017052 -114.5 101.5 C-116.46499546 106.15393662 -116.82002589 110.45678625 -116.89282227 115.47973633 C-116.91300415 116.71759888 -116.93318604 117.95546143 -116.95397949 119.23083496 C-116.97045532 120.52235474 -116.98693115 121.81387451 -117.00390625 123.14453125 C-117.03188293 124.93570374 -117.03188293 124.93570374 -117.0604248 126.76306152 C-117.12864222 131.21696688 -117.18884213 135.67099212 -117.25 140.125 C-117.394375 150.086875 -117.53875 160.04875 -117.6875 170.3125 C-78.4175 170.3125 -39.1475 170.3125 1.3125 170.3125 C1.3125 176.2525 1.3125 182.1925 1.3125 188.3125 C-0.99107483 188.31836624 -3.29464966 188.32423248 -5.66802979 188.33027649 C-27.3853942 188.38699252 -49.10265954 188.4600974 -70.81991959 188.54821491 C-81.98475448 188.59312378 -93.14955782 188.63254977 -104.31445312 188.65893555 C-114.04913149 188.68195538 -123.78370961 188.71539789 -133.5183084 188.76120156 C-138.66965313 188.78508003 -143.82089891 188.80384401 -148.97229767 188.81011391 C-153.82816054 188.81618911 -158.68377038 188.83627653 -163.53953934 188.86677551 C-165.3147442 188.87551683 -167.08998218 188.87928648 -168.86520767 188.87750816 C-187.89019232 188.8644758 -202.84357785 192.4302025 -216.828125 206.1953125 C-230.96450689 221.0035037 -237.79886106 241.87648759 -241.375 261.5625 C-241.58705078 262.68140625 -241.79910156 263.8003125 -242.01757812 264.953125 C-243.84028021 274.70486866 -244.83481053 283.89830783 -244.78515625 293.8125 C-244.78303383 295.42692993 -244.78303383 295.42692993 -244.78086853 297.07397461 C-244.7753038 300.48684555 -244.76275787 303.89964913 -244.75 307.3125 C-244.74498044 309.6367178 -244.74041833 311.96093663 -244.73632812 314.28515625 C-244.72534593 319.9609602 -244.7086432 325.63672529 -244.6875 331.3125 C-246.94617634 326.91328441 -247.99790959 322.55095502 -249.125 317.75 C-249.34381836 316.82413086 -249.56263672 315.89826172 -249.78808594 314.94433594 C-253.28748222 299.75271753 -255.80922344 284.22791772 -255.890625 268.6171875 C-255.89763931 267.71523148 -255.90465363 266.81327545 -255.91188049 265.88398743 C-255.92930732 262.98510703 -255.93573387 260.08643087 -255.9375 257.1875 C-255.93817474 256.19763092 -255.93884949 255.20776184 -255.93954468 254.18789673 C-255.92380838 239.6780013 -255.4744755 225.59056021 -252.6875 211.3125 C-252.44604248 209.96696045 -252.44604248 209.96696045 -252.19970703 208.59423828 C-241.37712011 148.78411096 -207.31935543 91.27004171 -158.6875 54.3125 C-158.14722168 53.89581055 -157.60694336 53.47912109 -157.05029297 53.04980469 C-147.0552884 45.3665127 -136.59540964 38.62407032 -125.6875 32.3125 C-125.01025879 31.91820801 -124.33301758 31.52391602 -123.63525391 31.11767578 C-100.7166244 17.93538827 -75.14177437 9.32989082 -49.3125 4 C-48.60182373 3.85256348 -47.89114746 3.70512695 -47.15893555 3.55322266 C-31.51641634 0.56786213 -15.88080394 -0.0623098 0 0 Z " fill="#264D6E" transform="translate(255.6875,-0.3125)"/>
<path d="M0 0 C0.99 0.495 0.99 0.495 2 1 C-5.2130155 10.47063256 -12.73688676 19.43014098 -21 28 C-21.61536621 28.64259766 -22.23073242 29.28519531 -22.86474609 29.94726562 C-31.69155158 39.12380001 -40.71608867 47.49197972 -51 55 C-51.64517578 55.47888672 -52.29035156 55.95777344 -52.95507812 56.45117188 C-61.17785914 62.5371378 -69.61087395 68.13720318 -78.4375 73.3125 C-79.67246216 74.04243164 -79.67246216 74.04243164 -80.93237305 74.78710938 C-81.69590088 75.22474609 -82.45942871 75.66238281 -83.24609375 76.11328125 C-83.92341553 76.50298096 -84.6007373 76.89268066 -85.29858398 77.29418945 C-85.86005127 77.52710693 -86.42151855 77.76002441 -87 78 C-87.66 77.67 -88.32 77.34 -89 77 C-88.67 60.5 -88.34 44 -88 27 C-126.94 27 -165.88 27 -206 27 C-206 21.06 -206 15.12 -206 9 C-203.70308701 8.99857498 -201.40617401 8.99714996 -199.03965759 8.99568176 C-177.36735038 8.97986292 -155.69522242 8.93646272 -134.02301693 8.86790943 C-122.88177765 8.83332543 -111.74066125 8.80791256 -100.59936523 8.80444336 C-90.88329458 8.80139429 -81.16744314 8.78077739 -71.45145708 8.73947543 C-66.31167996 8.71822921 -61.17221383 8.70550156 -56.0323925 8.71384621 C-51.18377554 8.72143961 -46.33578598 8.70535065 -41.48728371 8.67193985 C-39.71817752 8.66376986 -37.94900818 8.6638809 -36.17990875 8.67340279 C-24.10396842 8.73190758 -12.76819341 7.81108509 -2.2100668 1.27210712 C-1.11608373 0.6424141 -1.11608373 0.6424141 0 0 Z " fill="#264D6E" transform="translate(462,406)"/>
<path d="M0 0 C6.54728987 3.04467544 11.01860527 7.54177471 14.01953125 14.109375 C16.05663291 20.11232352 15.1997538 24.91090686 12.56640625 30.5859375 C9.46411436 36.19960854 5.8008912 39.35725973 -0.23046875 41.73046875 C-6.61466648 43.45024294 -12.6888319 42.8920207 -18.42578125 39.60546875 C-23.43792969 35.93778073 -27.03724524 31.43856491 -28.24609375 25.2734375 C-28.98771798 18.40182545 -28.35911783 12.96058191 -24.24609375 7.2734375 C-17.72379635 0.23815042 -9.31683781 -3.01379449 0 0 Z " fill="#EFF0F0" transform="translate(196.24609375,95.7265625)"/>
<path d="M0 0 C5.83181033 3.35018891 10.45421909 8.77671977 12.58203125 15.16015625 C12.83203125 18.22265625 12.83203125 18.22265625 12.58203125 22.16015625 C12.56914062 22.97484375 12.55625 23.78953125 12.54296875 24.62890625 C12.118207 27.90846207 11.6330688 29.52372743 9.58203125 32.16015625 C4.03774075 35.21340598 -2.30908252 36.65991868 -8.41796875 38.16015625 C-9.41679077 38.42880493 -9.41679077 38.42880493 -10.43579102 38.70288086 C-13.79981768 39.47893973 -17.02536599 39.75606252 -20.41796875 39.16015625 C-25.26294592 35.41631025 -29.21962612 30.2431717 -30.41796875 24.16015625 C-31.16485081 17.64636519 -30.29393496 12.52774794 -26.41796875 7.16015625 C-19.14358069 -0.45179042 -10.44871569 -3.6291985 0 0 Z " fill="#F1F0ED" transform="translate(332.41796875,465.83984375)"/>
</svg>
