<svg width="64" height="64" viewBox="0 0 64 64" fill="none" xmlns="http://www.w3.org/2000/svg">
  <rect width="64" height="64" rx="12" fill="#3178C6"/>
  <path d="M18 27.5V32h7.5v16h5V32H38v-4.5H18zm28.5 8.5c-1.2 0-2.2.2-3.1.7-.9.5-1.6 1.2-2.1 2.1-.5.9-.8 2-.8 3.2 0 1.2.3 2.3.8 3.2.5.9 1.2 1.6 2.1 2.1.9.5 1.9.7 3.1.7 1.2 0 2.2-.2 3.1-.7.9-.5 1.6-1.2 2.1-2.1.5-.9.8-2 .8-3.2 0-1.2-.3-2.3-.8-3.2-.5-.9-1.2-1.6-2.1-2.1-.9-.5-1.9-.7-3.1-.7zm0 2.5c.7 0 1.3.2 1.7.5.4.3.7.7.9 1.2.2.5.3 1 .3 1.5 0 .5-.1 1-.3 1.5-.2.5-.5.9-.9 1.2-.4.3-1 .5-1.7.5-.7 0-1.3-.2-1.7-.5-.4-.3-.7-.7-.9-1.2-.2-.5-.3-1-.3-1.5 0-.5.1-1 .3-1.5.2-.5.5-.9.9-1.2.4-.3 1-.5 1.7-.5z" fill="#fff"/>
</svg>
